<?xml version="1.0" encoding="utf-8"?>
<!-- Generator: Adobe Illustrator 19.2.1, SVG Export Plug-In . SVG Version: 6.00 Build 0)  -->
<svg version="1.1" id="Layer_1" xmlns="http://www.w3.org/2000/svg" xmlns:xlink="http://www.w3.org/1999/xlink" x="0px" y="0px"
	 viewBox="0 0 60 60" style="enable-background:new 0 0 60 60;" xml:space="preserve">
<style type="text/css">
	.st0{fill:#FFB300;}
	.st1{fill:#FFFFFF;}
	.st2{fill:#F2F2F2;}
	.st3{fill:#3F3F3F;}
	.st4{fill:#2C3E50;}
	.st5{fill:#17242D;}
	.st6{fill:#00B6F1;}
	.st7{fill:url(#SVGID_1_);}
	.st8{fill:#494949;}
	.st9{fill:#B2B2B2;}
	.st10{fill:url(#SVGID_2_);}
	.st11{fill:#FC4C02;}
	.st12{fill:#00AEEF;}
	.st13{fill:#CA3BFF;}
	.st14{fill:#F42F7F;}
	.st15{fill:#4DD3FF;}
	.st16{fill:#7A40FF;}
	.st17{fill:#FFC14D;}
	.st18{opacity:0.15;fill:none;stroke:#000000;stroke-miterlimit:10;stroke-dasharray:2,4;}
	.st19{fill:url(#SVGID_3_);}
	.st20{fill:url(#SVGID_4_);}
	.st21{fill:url(#SVGID_5_);}
	.st22{fill:url(#SVGID_6_);}
	.st23{fill:url(#SVGID_7_);}
	.st24{fill:url(#SVGID_8_);}
	.st25{fill:url(#SVGID_9_);}
	.st26{fill:url(#SVGID_10_);}
	.st27{fill:url(#SVGID_11_);}
	.st28{fill:url(#SVGID_12_);}
	.st29{fill:url(#SVGID_13_);}
	.st30{fill:url(#SVGID_14_);}
	.st31{fill:#BFBFBF;}
	.st32{fill:none;stroke:#3BED1B;stroke-width:3;stroke-miterlimit:10;}
	.st33{fill:#185B08;}
	.st34{fill:#22D6F4;}
	.st35{fill:none;stroke:#22D6F4;stroke-width:3;stroke-miterlimit:10;}
	.st36{fill:none;stroke:#3BED1B;stroke-width:2;stroke-miterlimit:10;}
	.st37{fill:none;stroke:#F4C70B;stroke-miterlimit:10;}
	.st38{fill:#FF2E65;}
	.st39{opacity:0.3;fill:none;stroke:#000000;stroke-miterlimit:10;}
	.st40{fill:#E54E72;}
	.st41{clip-path:url(#SVGID_16_);fill:#2CDD38;}
	.st42{clip-path:url(#SVGID_18_);fill:#FFDE1F;}
	.st43{fill:#9E9E9E;}
	.st44{clip-path:url(#SVGID_20_);fill:#E54E72;}
	.st45{clip-path:url(#SVGID_22_);fill:#00B6F1;}
	.st46{clip-path:url(#SVGID_24_);fill:#7266BA;}
	.st47{clip-path:url(#SVGID_26_);fill:#F42F7F;}
	.st48{clip-path:url(#SVGID_28_);fill:#4DD3FF;}
	.st49{clip-path:url(#SVGID_30_);fill:#7A40FF;}
	.st50{clip-path:url(#SVGID_32_);fill:#F42F7F;}
	.st51{clip-path:url(#SVGID_34_);fill:#00B6F1;}
	.st52{clip-path:url(#SVGID_36_);fill:#7A40FF;}
	.st53{fill:#969696;}
	.st54{fill:#7266BA;}
	.st55{fill:#1FC9BC;}
	.st56{fill:#2CDD38;}
	.st57{fill:#F9BC35;}
	.st58{fill:#FFFFFF;stroke:#D8D8D8;stroke-miterlimit:10;}
	.st59{fill:none;stroke:#D8D8D8;stroke-miterlimit:10;}
	.st60{fill:#FFFFFF;stroke:#E0E0E0;stroke-miterlimit:10;}
	.st61{fill:#4F4F4F;}
	.st62{fill:none;stroke:#4F4F4F;stroke-width:2;stroke-miterlimit:10;}
	.st63{fill:url(#SVGID_37_);}
	.st64{fill:#1ED8A3;}
	.st65{fill:#9F5EEA;}
	.st66{fill:#3173DD;}
	.st67{fill:url(#SVGID_38_);}
	.st68{fill:url(#SVGID_39_);}
	.st69{fill:url(#SVGID_40_);}
	.st70{fill:url(#SVGID_41_);}
	.st71{fill:url(#SVGID_42_);}
	.st72{fill:url(#SVGID_43_);}
	.st73{fill:url(#SVGID_44_);}
	.st74{fill:url(#SVGID_45_);}
	.st75{fill:url(#SVGID_46_);}
	.st76{fill:url(#SVGID_47_);}
	.st77{fill:url(#SVGID_48_);}
	.st78{fill:url(#SVGID_49_);}
	.st79{clip-path:url(#SVGID_51_);fill:#1ED8A3;}
	.st80{clip-path:url(#SVGID_53_);fill:#00B6F1;}
	.st81{clip-path:url(#SVGID_55_);fill:#9F5EEA;}
	.st82{clip-path:url(#SVGID_57_);fill:#00B6F1;}
	.st83{clip-path:url(#SVGID_59_);fill:#4DD3FF;}
	.st84{clip-path:url(#SVGID_61_);fill:#007CA4;}
	.st85{fill:#9C2FEA;}
	.st86{clip-path:url(#SVGID_63_);fill:#FFBC27;}
	.st87{clip-path:url(#SVGID_65_);fill:#55E022;}
	.st88{clip-path:url(#SVGID_67_);fill:#20C7E2;}
	.st89{fill:#FFBC27;}
	.st90{fill:#55E022;}
	.st91{fill:#20C7E2;}
	.st92{fill:#0072FF;}
	.st93{fill:#8CE553;}
	.st94{opacity:0.3;fill:none;stroke:#545454;stroke-miterlimit:10;}
	.st95{fill:#545454;}
	.st96{opacity:0.5;fill:#F2F2F4;}
	.st97{fill:#C4C4C4;}
	.st98{opacity:0.2;}
	.st99{fill:#F2F2F4;}
	.st100{fill:none;stroke:#F2F2F4;stroke-miterlimit:10;}
	.st101{fill:#CCCCCC;}
	.st102{fill:url(#SVGID_72_);}
	.st103{fill:url(#SVGID_73_);}
	.st104{fill:url(#SVGID_74_);}
	.st105{fill:url(#SVGID_75_);}
	.st106{fill:none;stroke:#FF3333;stroke-miterlimit:10;}
	.st107{fill:#FF3333;}
	.st108{fill:#007CA4;}
	.st109{fill:url(#SVGID_76_);}
	.st110{fill:#FFD400;}
	.st111{fill:#2E3CEF;}
	.st112{fill:#33FF94;}
	.st113{fill:#CCAB42;}
	.st114{fill:#FFBC00;}
	.st115{fill:#37EFD0;}
	.st116{fill:#F49F00;}
	.st117{fill:#FFD550;}
	.st118{fill:#A2FF33;}
	.st119{fill:#7A27FF;}
	.st120{fill:#E52E38;}
	.st121{fill:#D6B3FF;}
	.st122{fill:#63309D;}
	.st123{fill:#AAEF54;}
	.st124{fill:#6C9D30;}
	.st125{fill:#FF7EB2;}
	.st126{fill:#A7104D;}
	.st127{fill:#23F79C;}
	.st128{fill:#10A766;}
	.st129{fill:#FFDC9A;}
	.st130{fill:#B28124;}
	.st131{fill:#B89AFF;}
	.st132{fill:#4F24B2;}
	.st133{fill:url(#SVGID_77_);}
	.st134{fill:#FFFFFF;stroke:#E54E72;stroke-miterlimit:10;}
	.st135{fill:none;stroke:#E54E72;stroke-miterlimit:10;}
	.st136{fill:none;stroke:#FFFFFF;stroke-miterlimit:10;}
	.st137{fill:url(#SVGID_78_);}
	.st138{fill:url(#SVGID_79_);}
	.st139{fill:url(#SVGID_80_);}
	.st140{fill:url(#SVGID_81_);}
	.st141{fill:url(#SVGID_82_);}
	.st142{fill:#EFEFEF;}
</style>
<g>
	<path class="st1" d="M33,45.7c11.5-7.3,11-23.7,0.1-30.6c1.9-0.3,6.2,1.8,8.7,4.4c2.4,2.5,3.9,5.5,4.3,9C47.2,38,39.9,44.9,33,45.7
		z"/>
	<path class="st1" d="M40.2,45.7c5.3-3.7,8.3-8.8,8.3-15.3c0-6.5-3-11.6-8.4-15.3c2.8-0.4,8.1,2.9,10.5,6.6
		c3.4,5.3,3.6,10.9,0.5,16.4C48.8,42.4,45.1,44.9,40.2,45.7z"/>
	<path class="st1" d="M23.4,14.8c-8.7,0-15.7,7-15.7,15.7s7,15.7,15.7,15.7c8.7,0,15.7-7,15.7-15.7S32.1,14.8,23.4,14.8z M26.1,25.9
		C26.1,25.9,26.1,25.9,26.1,25.9c1,0,1.9,0,2.9,0c0,0,0.1,0,0.1,0c0,0,0,0,0,0c0,0,0,0,0,0.1c-0.3,0.5-0.6,1-1,1.4
		c0,0-0.1,0.1-0.1,0.1c-0.6,0-1.2,0-1.8,0c0,0,0,0-0.1,0c0,0,0,0,0,0c0,0,0,0,0,0.1c-0.1,0.4-0.2,0.9-0.4,1.3
		c-0.3,0.6-0.7,1-1.2,1.4c-0.5,0.4-1.1,0.7-1.7,0.9c-0.6,0.2-1.2,0.3-1.8,0.4c0,0-0.1,0-0.1,0c0,0,0,0,0,0.1
		c1.7,2.2,3.5,4.3,5.2,6.5c0.3,0.4,0.6,0.8,0.9,1.1c0,0,0,0,0,0.1c-0.9,0-1.8,0-2.7,0c0,0,0,0,0,0c-0.5-0.6-1-1.3-1.5-1.9
		c-1.5-1.8-2.9-3.7-4.4-5.5c0,0,0-0.1,0-0.1c0-0.5,0-0.9,0-1.4c0,0,0,0,0-0.1c0,0,0,0,0.1,0c0.4,0,0.8,0,1.1,0c0.3,0,0.7,0,1,0
		c0.3,0,0.6-0.1,1-0.2c0.4-0.1,0.8-0.3,1.2-0.5c0.7-0.5,1.1-1.1,1.2-1.9c0-0.1,0-0.2,0-0.2c0,0,0,0,0,0c0,0,0,0,0,0c0,0,0,0,0,0
		c0,0,0,0,0,0c0,0,0,0,0,0c-2,0-4,0-6,0c0,0,0,0,0,0c0,0,0,0,0,0c0,0,0,0,0,0c0,0,0,0,0,0c0,0,0,0,0,0c0,0,0,0,0,0c0,0,0,0,0,0
		c0.1-0.1,0.1-0.2,0.2-0.3c0.3-0.4,0.5-0.8,0.8-1.2c0,0,0-0.1,0.1,0c0,0,0,0,0,0c1.6,0,3.1,0,4.7,0c0,0,0,0,0.1,0c0,0,0,0,0,0
		c0,0,0,0,0,0c-0.1-0.3-0.3-0.6-0.6-0.8c-0.3-0.3-0.6-0.4-1-0.5c-0.4-0.1-0.8-0.2-1.3-0.2c-0.3,0-0.7,0-1,0c-0.7,0-1.3,0-2,0
		c0,0,0,0-0.1,0c0,0,0,0,0-0.1c0.3-0.5,0.6-1,1-1.5c0,0,0,0,0-0.1c3.4,0,6.8,0,10.2,0c0,0,0,0,0.1,0c0,0,0,0,0,0.1
		c-0.3,0.4-0.5,0.8-0.8,1.2c-0.1,0.1-0.1,0.2-0.2,0.3c0,0,0,0-0.1,0c0,0,0,0,0,0c-0.9,0-1.7,0-2.6,0c0,0,0,0-0.1,0
		C25.7,24.7,25.9,25.3,26.1,25.9z"/>
</g>
</svg>
