<svg xmlns="http://www.w3.org/2000/svg" width="88" height="88" viewBox="0 0 88 88">
  <g id="gogreen_1_" data-name="gogreen (1)" transform="translate(-3.7 -3.7)">
    <circle id="Ellipse_8" data-name="Ellipse 8" cx="43" cy="43" r="43" transform="translate(4.7 4.7)" fill="none" stroke="#8ce553" stroke-miterlimit="10" stroke-width="2"/>
    <path id="Path_39" data-name="Path 39" d="M43.217,6.6A36.617,36.617,0,1,0,79.834,43.217,36.7,36.7,0,0,0,43.217,6.6Zm4.031,44.68c-4.7,3.359-10.75,5.039-18.477,3.7a10.676,10.676,0,0,1,1.008-3.023,18.466,18.466,0,0,1,4.367-5.711c2.688-2.352,5.711-4.367,8.4-6.383.336,0,.336-.336.672-.672h-.672a51.166,51.166,0,0,0-11.422,7.391c-3.023,2.688-4.7,6.047-4.031,10.414.672,4.031,1.68,7.727,4.367,11.086l1.008,1.008H29.444c-.336,0-.672-.336-1.008-.672-1.344-2.016-2.016-4.7-2.687-7.055-.672-4.7-1.008-9.742,0-14.445A21.964,21.964,0,0,1,36.5,32.131c4.367-2.687,9.406-4.367,14.109-6.383,2.016-1.008,3.7-2.016,5.375-3.023,2.352-1.344,3.359-3.7,3.7-6.383h.336c.336,1.68,1.008,3.7,1.344,5.375C62.03,34.483,57.327,44.225,47.248,51.28Z" transform="translate(4.483 4.483)" fill="#8ce553"/>
  </g>
</svg>
