<svg xmlns="http://www.w3.org/2000/svg" xmlns:xlink="http://www.w3.org/1999/xlink" width="65" height="65" viewBox="0 0 65 65">
  <defs>
    <linearGradient id="linear-gradient" x1="0.5" y1="1.004" x2="0.5" y2="0.004" gradientUnits="objectBoundingBox">
      <stop offset="0" stop-color="#2af598"/>
      <stop offset="1" stop-color="#009efd"/>
    </linearGradient>
  </defs>
  <path id="grid" d="M22.444,29.961H7.517A7.525,7.525,0,0,1,0,22.444V7.517A7.525,7.525,0,0,1,7.517,0H22.444a7.525,7.525,0,0,1,7.517,7.517V22.444A7.525,7.525,0,0,1,22.444,29.961ZM7.517,5.078A2.441,2.441,0,0,0,5.078,7.517V22.444a2.441,2.441,0,0,0,2.439,2.439H22.444a2.441,2.441,0,0,0,2.439-2.439V7.517a2.441,2.441,0,0,0-2.439-2.439ZM57.383,29.961H42.656a7.626,7.626,0,0,1-7.617-7.617V7.617A7.626,7.626,0,0,1,42.656,0H57.383A7.626,7.626,0,0,1,65,7.617V22.344A7.626,7.626,0,0,1,57.383,29.961ZM42.656,5.078a2.542,2.542,0,0,0-2.539,2.539V22.344a2.542,2.542,0,0,0,2.539,2.539H57.383a2.542,2.542,0,0,0,2.539-2.539V7.617a2.542,2.542,0,0,0-2.539-2.539ZM22.444,65H7.517A7.525,7.525,0,0,1,0,57.483V42.556a7.525,7.525,0,0,1,7.517-7.517H22.444a7.525,7.525,0,0,1,7.517,7.517V57.483A7.525,7.525,0,0,1,22.444,65ZM7.517,40.117a2.441,2.441,0,0,0-2.439,2.439V57.483a2.441,2.441,0,0,0,2.439,2.439H22.444a2.441,2.441,0,0,0,2.439-2.439V42.556a2.441,2.441,0,0,0-2.439-2.439ZM57.383,65H42.656a7.626,7.626,0,0,1-7.617-7.617V42.656a7.626,7.626,0,0,1,7.617-7.617H57.383A7.626,7.626,0,0,1,65,42.656V57.383A7.626,7.626,0,0,1,57.383,65ZM42.656,40.117a2.542,2.542,0,0,0-2.539,2.539V57.383a2.542,2.542,0,0,0,2.539,2.539H57.383a2.542,2.542,0,0,0,2.539-2.539V42.656a2.542,2.542,0,0,0-2.539-2.539Z" fill="url(#linear-gradient)"/>
</svg>
