<svg xmlns="http://www.w3.org/2000/svg" xmlns:xlink="http://www.w3.org/1999/xlink" width="46" height="55.198" viewBox="0 0 46 55.198">
  <defs>
    <linearGradient id="linear-gradient" x1="0.5" x2="0.5" y2="1" gradientUnits="objectBoundingBox">
      <stop offset="0" stop-color="#ffa555"/>
      <stop offset="1" stop-color="#ff3f6f"/>
    </linearGradient>
  </defs>
  <g id="notification" transform="translate(-42.657)">
    <g id="Group_6" data-name="Group 6" transform="translate(42.657 8.05)">
      <g id="Group_5" data-name="Group 5">
        <path id="Path_8" data-name="Path 8" d="M88.493,113.174l-3.951-6.582a19.566,19.566,0,0,1-2.785-10.06V90.766a16.1,16.1,0,0,0-32.2,0v5.766a19.566,19.566,0,0,1-2.785,10.06l-3.951,6.582a1.149,1.149,0,0,0,.987,1.741h43.7a1.149,1.149,0,0,0,.987-1.741Zm-42.654-.559,2.9-4.841a21.845,21.845,0,0,0,3.114-11.242V90.766a13.8,13.8,0,0,1,27.6,0v5.766a21.865,21.865,0,0,0,3.112,11.242l2.907,4.841H45.839Z" transform="translate(-42.657 -74.667)" fill="url(#linear-gradient)"/>
      </g>
    </g>
    <g id="Group_8" data-name="Group 8" transform="translate(61.057)">
      <g id="Group_7" data-name="Group 7">
        <path id="Path_9" data-name="Path 9" d="M217.933,0a4.6,4.6,0,0,0-4.6,4.6V9.2a1.15,1.15,0,0,0,2.3,0V4.6a2.3,2.3,0,1,1,4.6,0V9.2a1.15,1.15,0,0,0,2.3,0V4.6A4.6,4.6,0,0,0,217.933,0Z" transform="translate(-213.333)" fill="url(#linear-gradient)"/>
      </g>
    </g>
    <g id="Group_10" data-name="Group 10" transform="translate(59.908 45.999)">
      <g id="Group_9" data-name="Group 9">
        <path id="Path_10" data-name="Path 10" d="M213.393,427.246a1.151,1.151,0,0,0-1.987,1.164,3.45,3.45,0,1,1-5.975,0,1.151,1.151,0,0,0-1.987-1.164,5.752,5.752,0,1,0,9.949,0Z" transform="translate(-202.666 -426.68)" fill="url(#linear-gradient)"/>
      </g>
    </g>
  </g>
</svg>
